ply
format ascii 1.0
comment Created by Blender 3.3.1 - www.blender.org
element vertex 88
property float x
property float y
property float z
element face 172
property list uchar uint vertex_indices
end_header
-0.344503 -0.106899 -2.313329
0.254658 0.065420 -2.430170
0.506020 -0.293147 -2.207084
1.415955 0.064912 -1.957500
1.489208 -0.318759 -1.320762
1.685851 0.084184 -1.268915
2.014675 -0.126122 -0.782958
0.957233 -1.089151 -0.905606
0.454708 -1.256676 -0.897711
0.810208 -0.709404 -1.141590
0.739686 -1.249709 -0.541415
0.231851 -1.904112 -0.621845
0.052641 -1.633897 -0.758536
-0.020753 -0.743329 -1.377161
1.364762 -0.324582 0.647285
2.074500 0.090083 0.068582
1.608835 0.037777 0.559365
1.955554 -0.191974 0.132568
1.393132 0.037777 1.383312
1.210661 -0.322174 1.134609
0.514977 -0.286422 1.576757
0.507135 -1.581211 0.348922
0.342563 -2.052501 -0.027325
0.620568 -1.491335 -0.146730
0.745909 -0.723539 0.485115
0.089439 -1.345612 0.360167
1.089500 -0.770651 -0.314462
-0.123718 -0.298339 1.611730
-0.930959 0.037777 1.550149
-0.866234 -0.291222 1.300128
-0.414258 0.037777 1.808618
-1.444312 -0.282136 0.794076
-1.591571 0.097928 0.827036
-1.839477 -0.177971 0.145553
-0.936850 -0.751093 -0.176985
-0.611777 -1.317411 -0.262516
-0.326162 -1.310280 0.225784
0.289486 -0.743127 0.679448
0.020776 -1.770522 0.330532
-1.675519 -0.336500 -0.606829
-1.607249 0.010755 -1.680275
-0.625318 -0.725192 -1.039731
-2.011082 0.043485 -0.744422
-1.247727 0.059337 -1.332687
-0.934732 -0.314137 -1.943344
-0.184171 -0.491687 -2.096484
-0.707720 0.065178 -2.205832
-0.350659 -1.373304 -0.758204
-0.299529 -2.155551 -0.308846
-0.086080 -2.478361 -0.004677
0.091215 -2.267556 0.130842
-0.260030 -2.240649 0.060849
-0.470828 -1.954876 0.024811
-0.278168 0.037777 -0.209083
-0.914878 0.210568 -1.267986
-0.862298 0.231412 -0.781910
-0.302799 0.520691 -1.301783
-1.068480 0.101026 -0.360536
-1.736910 0.103204 0.106553
0.236277 0.037777 0.701510
0.656348 0.037777 -0.098120
0.501631 0.037777 1.688231
1.034499 0.275328 -1.269756
0.471459 0.267036 -1.698558
0.637660 0.376390 -1.207861
0.812177 0.491673 -0.567514
1.244986 0.398908 -0.324291
1.002755 0.639249 -0.717163
1.381545 0.288786 -0.765328
1.348978 0.284964 -1.076072
-0.505260 0.213488 -1.704558
-0.221831 0.306144 -1.838428
-0.274246 0.065420 -2.359878
2.054775 0.091828 -0.677912
-0.148262 0.773865 -0.947432
0.101020 0.922236 -0.839739
0.312442 0.779166 -1.109731
-0.262315 0.721321 -1.533752
-0.404757 0.197895 -0.782219
0.568488 0.537125 -0.913448
0.115069 0.760356 -1.450921
-0.061115 0.654189 -0.643377
0.205810 0.801703 -0.757537
0.344937 0.262088 -0.492076
0.077232 0.934717 -1.202342
-0.102879 0.422805 -0.489015
-0.269697 0.566033 -0.874217
-0.186512 0.743264 -1.152426
3 0 1 2
3 3 4 2
3 5 6 4
3 7 8 9
3 8 10 11
3 9 12 13
3 14 15 16
3 14 6 17
3 6 15 17
3 14 18 19
3 18 20 19
3 21 22 23
3 24 25 21
3 24 23 26
3 27 28 29
3 20 30 27
3 28 31 29
3 32 33 31
3 34 35 36
3 36 25 37
3 36 38 25
3 39 40 41
3 40 42 43
3 33 42 39
3 40 44 41
3 44 0 45
3 40 46 44
3 46 0 44
3 41 12 47
3 47 12 48
3 41 35 34
3 48 35 47
3 48 11 49
3 11 50 49
3 50 51 49
3 50 52 51
3 51 48 49
3 53 32 28
3 54 55 56
3 57 58 32
3 59 16 60
3 28 59 53
3 59 61 18
3 62 63 64
3 65 66 67
3 68 5 69
3 70 43 54
3 63 1 71
3 71 72 46
3 13 45 2
3 9 4 7
3 4 26 7
3 26 14 24
3 26 6 14
3 19 37 24
3 37 29 36
3 29 34 36
3 44 13 41
3 2 1 3
3 2 45 0
3 0 72 1
3 9 2 4
3 3 5 4
3 5 73 6
3 7 10 8
3 7 26 10
3 9 8 12
3 8 11 12
3 14 17 15
3 6 73 15
3 14 16 18
3 18 61 20
3 24 21 23
3 21 38 22
3 24 37 25
3 21 25 38
3 26 23 10
3 23 22 10
3 27 30 28
3 20 61 30
3 28 32 31
3 32 58 33
3 36 35 52
3 74 75 76
3 36 52 38
3 40 39 42
3 33 58 42
3 40 43 46
3 46 72 0
3 41 13 12
3 41 47 35
3 48 52 35
3 48 12 11
3 11 22 50
3 11 10 22
3 50 38 52
3 22 38 50
3 48 51 52
3 53 57 32
3 43 42 57
3 57 42 58
3 59 18 16
3 28 30 59
3 59 30 61
3 5 62 69
3 60 16 15
3 66 73 68
3 71 70 77
3 63 3 1
3 71 1 72
3 13 2 9
3 4 6 26
3 14 19 24
3 19 20 37
3 37 27 29
3 37 20 27
3 29 31 34
3 31 33 34
3 34 39 41
3 34 33 39
3 44 45 13
3 55 78 56
3 59 60 53
3 79 60 65
3 77 56 80
3 81 82 75
3 82 76 75
3 60 76 83
3 76 80 84
3 53 83 85
3 86 74 87
3 64 76 79
3 74 84 87
3 53 60 83
3 78 85 86
3 67 64 79
3 67 79 65
3 67 66 68
3 67 69 62
3 67 68 69
3 60 66 65
3 67 62 64
3 62 3 63
3 68 73 5
3 5 3 62
3 66 15 73
3 79 76 60
3 64 63 76
3 60 15 66
3 76 82 83
3 85 82 81
3 85 83 82
3 74 85 81
3 56 78 86
3 56 87 84
3 56 86 87
3 56 84 80
3 71 80 63
3 53 55 57
3 56 77 70
3 56 70 54
3 43 55 54
3 70 46 43
3 71 46 70
3 76 63 80
3 86 85 74
3 74 76 84
3 78 53 85
3 71 77 80
3 53 78 55
3 43 57 55
3 74 81 75
