ply
format ascii 1.0
comment Created by Blender 3.3.1 - www.blender.org
element vertex 251
property float x
property float y
property float z
element face 475
property list uchar uint vertex_indices
end_header
1.729116 4.087996 0.617688
1.654545 3.987138 0.563510
1.760877 4.068367 0.486257
1.785979 4.199801 0.563510
1.479118 4.087996 0.698919
1.613932 4.068367 0.688510
1.548215 4.199801 0.736257
1.324608 4.087997 0.486257
1.376167 4.068367 0.611256
1.310450 4.199801 0.563510
1.479118 4.087996 0.273594
1.376167 4.068367 0.361257
1.401268 4.199801 0.284003
1.729116 4.087996 0.354825
1.613932 4.068367 0.284004
1.695161 4.199801 0.284003
1.695161 4.199801 0.688511
1.401268 4.199801 0.688511
1.310450 4.199801 0.409003
1.548215 4.199801 0.236257
1.785979 4.199801 0.409003
1.617312 4.311606 0.698919
1.720262 4.331235 0.611256
1.588828 4.412465 0.611256
1.367313 4.311606 0.617688
1.482497 4.331236 0.688510
1.441884 4.412465 0.563510
1.367313 4.311606 0.354825
1.335553 4.331235 0.486257
1.441884 4.412465 0.409004
1.617312 4.311606 0.273594
1.482497 4.331236 0.284004
1.588828 4.412465 0.361258
1.771821 4.311605 0.486257
1.720262 4.331235 0.361257
1.679647 4.412465 0.486257
1.548215 4.449801 0.486257
1.654545 3.987138 0.409004
1.507601 3.987138 0.361258
1.416782 3.987139 0.486257
1.507601 3.987138 0.611256
2.156725 3.898984 0.414643
2.352060 3.967573 0.556561
2.082115 3.967573 0.644273
2.489051 4.152857 0.656090
2.547396 4.116797 0.414643
1.915276 3.967575 0.414643
2.082115 3.967573 0.185014
2.352060 3.967573 0.272726
2.593511 4.358249 0.556561
2.029790 4.152857 0.805315
2.277451 4.116796 0.786193
2.156725 4.358249 0.873907
1.745947 4.152858 0.414643
1.840664 4.116797 0.644274
1.719939 4.358249 0.556561
2.029790 4.152857 0.023971
1.840664 4.116797 0.185013
1.886776 4.358249 0.043091
2.489051 4.152857 0.173197
2.277451 4.116796 0.043094
2.426673 4.358249 0.043091
2.426673 4.358249 0.786196
1.886776 4.358249 0.786196
1.719939 4.358249 0.272725
2.156725 4.358249 -0.044620
2.593511 4.358249 0.272725
2.283660 4.563640 0.805315
2.472785 4.599700 0.644274
2.231334 4.748922 0.644273
1.824398 4.563640 0.656090
2.035999 4.599700 0.786193
1.961390 4.748922 0.556561
1.824398 4.563640 0.173197
1.766053 4.599700 0.414643
1.961390 4.748922 0.272726
2.283660 4.563640 0.023971
2.035999 4.599700 0.043094
2.231334 4.748922 0.185014
2.567502 4.563638 0.414643
2.472785 4.599700 0.185013
2.398173 4.748921 0.414643
2.156725 4.817512 0.414643
2.646732 3.898655 0.431051
2.753063 3.935992 0.508303
2.606118 3.935992 0.556049
2.827634 4.036850 0.562482
2.859394 4.017221 0.431051
2.515300 3.935992 0.431051
2.606118 3.935992 0.306052
2.753063 3.935992 0.353798
2.884497 4.148655 0.508304
2.577635 4.036850 0.643713
2.712450 4.017221 0.633303
2.646732 4.148655 0.681051
2.423126 4.036851 0.431051
2.474685 4.017221 0.556050
2.408968 4.148655 0.508304
2.577635 4.036850 0.218388
2.474685 4.017221 0.306051
2.499786 4.148655 0.228796
2.827634 4.036850 0.299619
2.712450 4.017221 0.228798
2.793679 4.148655 0.228796
2.793679 4.148655 0.633305
2.499786 4.148655 0.633305
2.408968 4.148655 0.353797
2.646732 4.148655 0.181050
2.884497 4.148655 0.353797
2.715829 4.260460 0.643713
2.818779 4.280089 0.556050
2.687346 4.361319 0.556049
2.465831 4.260460 0.562482
2.581015 4.280089 0.633303
2.540401 4.361319 0.508303
2.465831 4.260460 0.299619
2.434070 4.280089 0.431051
2.540401 4.361319 0.353798
2.715829 4.260460 0.218388
2.581015 4.280089 0.228798
2.687346 4.361319 0.306052
2.870339 4.260459 0.431051
2.818779 4.280089 0.306051
2.778165 4.361318 0.431051
2.646732 4.398655 0.431051
2.700115 3.959145 0.567601
2.914062 4.034269 0.723040
2.618397 4.034268 0.819109
3.064105 4.237206 0.832052
3.128009 4.197710 0.567601
2.435662 4.034270 0.567601
2.618397 4.034268 0.316093
2.914062 4.034269 0.412162
3.178518 4.462166 0.723041
2.561086 4.237205 0.995496
2.832344 4.197709 0.974551
2.700115 4.462166 1.070623
2.250200 4.237207 0.567601
2.353941 4.197710 0.819110
2.221712 4.462166 0.723041
2.561086 4.237205 0.139706
2.353941 4.197710 0.316092
2.404446 4.462166 0.160648
3.064105 4.237206 0.303150
2.832344 4.197709 0.160651
2.995784 4.462166 0.160648
2.995784 4.462166 0.974554
2.404446 4.462166 0.974554
2.221712 4.462166 0.412161
2.700115 4.462166 0.064579
3.178518 4.462166 0.412161
2.839144 4.687128 0.995496
3.046289 4.726623 0.819110
2.781834 4.890064 0.819109
2.336125 4.687127 0.832052
2.567886 4.726624 0.974551
2.486169 4.890064 0.723040
2.336125 4.687127 0.303150
2.272221 4.726623 0.567601
2.486169 4.890064 0.412162
2.839144 4.687128 0.139706
2.567886 4.726624 0.160651
2.781834 4.890064 0.316093
3.150031 4.687126 0.567601
3.046289 4.726623 0.316092
2.964568 4.890063 0.567601
2.700115 4.965188 0.567601
3.250010 4.049544 0.458231
3.356341 4.086880 0.535484
3.209396 4.086880 0.583230
3.430912 4.187739 0.589663
3.462672 4.168110 0.458231
3.118578 4.086881 0.458231
3.209396 4.086880 0.333233
3.356341 4.086880 0.380978
3.487775 4.299544 0.535484
3.180913 4.187739 0.670894
3.315727 4.168109 0.660484
3.250010 4.299544 0.708231
3.026404 4.187740 0.458231
3.077963 4.168110 0.583231
3.012246 4.299544 0.535484
3.180913 4.187739 0.245569
3.077963 4.168110 0.333232
3.103064 4.299544 0.255977
3.430912 4.187739 0.326800
3.315727 4.168109 0.255978
3.396957 4.299544 0.255977
3.396957 4.299544 0.660485
3.103064 4.299544 0.660485
3.012246 4.299544 0.380978
3.250010 4.299544 0.208231
3.487775 4.299544 0.380978
3.319107 4.411349 0.670894
3.422058 4.430978 0.583231
3.290624 4.512208 0.583230
3.069108 4.411349 0.589663
3.184293 4.430978 0.660484
3.143680 4.512208 0.535484
3.069108 4.411349 0.326800
3.037349 4.430978 0.458231
3.143680 4.512208 0.380978
3.319107 4.411349 0.245569
3.184293 4.430978 0.255978
3.290624 4.512208 0.333233
3.473617 4.411348 0.458231
3.422058 4.430978 0.333232
3.381443 4.512207 0.458231
3.250010 4.549544 0.458231
2.603807 4.054093 0.032380
2.710138 4.091430 0.109633
2.563194 4.091430 0.157379
2.784709 4.192288 0.163812
2.816469 4.172659 0.032380
2.472375 4.091431 0.032380
2.563194 4.091430 -0.092619
2.710138 4.091430 -0.044873
2.841572 4.304093 0.109633
2.534710 4.192288 0.245043
2.669524 4.172659 0.234633
2.603807 4.304093 0.282380
2.380201 4.192290 0.032380
2.431760 4.172659 0.157379
2.366043 4.304093 0.109633
2.534710 4.192288 -0.180282
2.431760 4.172659 -0.092619
2.456861 4.304093 -0.169874
2.784709 4.192288 -0.099051
2.669524 4.172659 -0.169873
2.750754 4.304093 -0.169874
2.750754 4.304093 0.234634
2.456861 4.304093 0.234634
2.366043 4.304093 -0.044873
2.603807 4.304093 -0.217620
2.841572 4.304093 -0.044873
2.672904 4.415898 0.245043
2.775855 4.435528 0.157379
2.644421 4.516757 0.157379
2.422905 4.415898 0.163812
2.538090 4.435528 0.234633
2.497477 4.516757 0.109633
2.422905 4.415898 -0.099051
2.391145 4.435527 0.032380
2.497477 4.516757 -0.044873
2.672904 4.415898 -0.180282
2.538090 4.435528 -0.169873
2.644421 4.516757 -0.092619
2.827414 4.415897 0.032380
2.775855 4.435528 -0.092619
2.735240 4.516757 0.032380
2.603807 4.554093 0.032380
3 0 1 2
3 0 2 3
3 4 5 6
3 7 8 9
3 10 11 12
3 13 14 15
3 0 3 16
3 4 6 17
3 7 9 18
3 10 12 19
3 13 15 20
3 21 22 23
3 24 25 26
3 27 28 29
3 30 31 32
3 33 34 35
3 35 32 36
3 35 34 32
3 34 30 32
3 32 29 36
3 32 31 29
3 31 27 29
3 29 26 36
3 29 28 26
3 28 24 26
3 26 23 36
3 26 25 23
3 25 21 23
3 23 35 36
3 23 22 35
3 22 33 35
3 20 34 33
3 20 15 34
3 15 30 34
3 19 31 30
3 19 12 31
3 12 27 31
3 18 28 27
3 18 9 28
3 9 24 28
3 17 25 24
3 17 6 25
3 6 21 25
3 16 22 21
3 16 3 22
3 3 33 22
3 15 19 30
3 15 14 19
3 14 10 19
3 12 18 27
3 12 11 18
3 11 7 18
3 9 17 24
3 9 8 17
3 8 4 17
3 6 16 21
3 6 5 16
3 5 0 16
3 3 20 33
3 3 2 20
3 2 13 20
3 37 14 13
3 37 38 14
3 38 10 14
3 38 11 10
3 38 39 11
3 39 7 11
3 39 8 7
3 39 40 8
3 40 4 8
3 2 37 13
3 2 1 37
3 40 5 4
3 40 1 5
3 1 0 5
3 41 42 43
3 44 42 45
3 41 43 46
3 41 46 47
3 41 47 48
3 44 45 49
3 50 51 52
3 53 54 55
3 56 57 58
3 59 60 61
3 44 49 62
3 50 52 63
3 53 55 64
3 56 58 65
3 59 61 66
3 67 68 69
3 70 71 72
3 73 74 75
3 76 77 78
3 79 80 81
3 81 78 82
3 81 80 78
3 80 76 78
3 78 75 82
3 78 77 75
3 77 73 75
3 75 72 82
3 75 74 72
3 74 70 72
3 72 69 82
3 72 71 69
3 71 67 69
3 69 81 82
3 69 68 81
3 68 79 81
3 66 80 79
3 66 61 80
3 61 76 80
3 65 77 76
3 65 58 77
3 58 73 77
3 64 74 73
3 64 55 74
3 55 70 74
3 63 71 70
3 63 52 71
3 52 67 71
3 62 68 67
3 62 49 68
3 49 79 68
3 61 65 76
3 61 60 65
3 60 56 65
3 58 64 73
3 58 57 64
3 57 53 64
3 55 63 70
3 55 54 63
3 54 50 63
3 52 62 67
3 52 51 62
3 51 44 62
3 49 66 79
3 49 45 66
3 45 59 66
3 48 60 59
3 48 47 60
3 47 56 60
3 47 57 56
3 47 46 57
3 46 53 57
3 46 54 53
3 46 43 54
3 43 50 54
3 45 48 59
3 45 42 48
3 42 41 48
3 43 51 50
3 43 42 51
3 42 44 51
3 83 84 85
3 86 84 87
3 83 85 88
3 83 88 89
3 83 89 90
3 86 87 91
3 92 93 94
3 95 96 97
3 98 99 100
3 101 102 103
3 86 91 104
3 92 94 105
3 95 97 106
3 98 100 107
3 101 103 108
3 109 110 111
3 112 113 114
3 115 116 117
3 118 119 120
3 121 122 123
3 123 120 124
3 123 122 120
3 122 118 120
3 120 117 124
3 120 119 117
3 119 115 117
3 117 114 124
3 117 116 114
3 116 112 114
3 114 111 124
3 114 113 111
3 113 109 111
3 111 123 124
3 111 110 123
3 110 121 123
3 108 122 121
3 108 103 122
3 103 118 122
3 107 119 118
3 107 100 119
3 100 115 119
3 106 116 115
3 106 97 116
3 97 112 116
3 105 113 112
3 105 94 113
3 94 109 113
3 104 110 109
3 104 91 110
3 91 121 110
3 103 107 118
3 103 102 107
3 102 98 107
3 100 106 115
3 100 99 106
3 99 95 106
3 97 105 112
3 97 96 105
3 96 92 105
3 94 104 109
3 94 93 104
3 93 86 104
3 91 108 121
3 91 87 108
3 87 101 108
3 90 102 101
3 90 89 102
3 89 98 102
3 89 99 98
3 89 88 99
3 88 95 99
3 88 96 95
3 88 85 96
3 85 92 96
3 87 90 101
3 87 84 90
3 84 83 90
3 85 93 92
3 85 84 93
3 84 86 93
3 125 126 127
3 128 126 129
3 125 127 130
3 125 130 131
3 125 131 132
3 128 129 133
3 134 135 136
3 137 138 139
3 140 141 142
3 143 144 145
3 128 133 146
3 134 136 147
3 137 139 148
3 140 142 149
3 143 145 150
3 151 152 153
3 154 155 156
3 157 158 159
3 160 161 162
3 163 164 165
3 165 162 166
3 165 164 162
3 164 160 162
3 162 159 166
3 162 161 159
3 161 157 159
3 159 156 166
3 159 158 156
3 158 154 156
3 156 153 166
3 156 155 153
3 155 151 153
3 153 165 166
3 153 152 165
3 152 163 165
3 150 164 163
3 150 145 164
3 145 160 164
3 149 161 160
3 149 142 161
3 142 157 161
3 148 158 157
3 148 139 158
3 139 154 158
3 147 155 154
3 147 136 155
3 136 151 155
3 146 152 151
3 146 133 152
3 133 163 152
3 145 149 160
3 145 144 149
3 144 140 149
3 142 148 157
3 142 141 148
3 141 137 148
3 139 147 154
3 139 138 147
3 138 134 147
3 136 146 151
3 136 135 146
3 135 128 146
3 133 150 163
3 133 129 150
3 129 143 150
3 132 144 143
3 132 131 144
3 131 140 144
3 131 141 140
3 131 130 141
3 130 137 141
3 130 138 137
3 130 127 138
3 127 134 138
3 129 132 143
3 129 126 132
3 126 125 132
3 127 135 134
3 127 126 135
3 126 128 135
3 167 168 169
3 170 168 171
3 167 169 172
3 167 172 173
3 167 173 174
3 170 171 175
3 176 177 178
3 179 180 181
3 182 183 184
3 185 186 187
3 170 175 188
3 176 178 189
3 179 181 190
3 182 184 191
3 185 187 192
3 193 194 195
3 196 197 198
3 199 200 201
3 202 203 204
3 205 206 207
3 207 204 208
3 207 206 204
3 206 202 204
3 204 201 208
3 204 203 201
3 203 199 201
3 201 198 208
3 201 200 198
3 200 196 198
3 198 195 208
3 198 197 195
3 197 193 195
3 195 207 208
3 195 194 207
3 194 205 207
3 192 206 205
3 192 187 206
3 187 202 206
3 191 203 202
3 191 184 203
3 184 199 203
3 190 200 199
3 190 181 200
3 181 196 200
3 189 197 196
3 189 178 197
3 178 193 197
3 188 194 193
3 188 175 194
3 175 205 194
3 187 191 202
3 187 186 191
3 186 182 191
3 184 190 199
3 184 183 190
3 183 179 190
3 181 189 196
3 181 180 189
3 180 176 189
3 178 188 193
3 178 177 188
3 177 170 188
3 175 192 205
3 175 171 192
3 171 185 192
3 174 186 185
3 174 173 186
3 173 182 186
3 173 183 182
3 173 172 183
3 172 179 183
3 172 180 179
3 172 169 180
3 169 176 180
3 171 174 185
3 171 168 174
3 168 167 174
3 169 177 176
3 169 168 177
3 168 170 177
3 209 210 211
3 212 210 213
3 209 211 214
3 209 214 215
3 209 215 216
3 212 213 217
3 218 219 220
3 221 222 223
3 224 225 226
3 227 228 229
3 212 217 230
3 218 220 231
3 221 223 232
3 224 226 233
3 227 229 234
3 235 236 237
3 238 239 240
3 241 242 243
3 244 245 246
3 247 248 249
3 249 246 250
3 249 248 246
3 248 244 246
3 246 243 250
3 246 245 243
3 245 241 243
3 243 240 250
3 243 242 240
3 242 238 240
3 240 237 250
3 240 239 237
3 239 235 237
3 237 249 250
3 237 236 249
3 236 247 249
3 234 248 247
3 234 229 248
3 229 244 248
3 233 245 244
3 233 226 245
3 226 241 245
3 232 242 241
3 232 223 242
3 223 238 242
3 231 239 238
3 231 220 239
3 220 235 239
3 230 236 235
3 230 217 236
3 217 247 236
3 229 233 244
3 229 228 233
3 228 224 233
3 226 232 241
3 226 225 232
3 225 221 232
3 223 231 238
3 223 222 231
3 222 218 231
3 220 230 235
3 220 219 230
3 219 212 230
3 217 234 247
3 217 213 234
3 213 227 234
3 216 228 227
3 216 215 228
3 215 224 228
3 215 225 224
3 215 214 225
3 214 221 225
3 214 222 221
3 214 211 222
3 211 218 222
3 213 216 227
3 213 210 216
3 210 209 216
3 211 219 218
3 211 210 219
3 210 212 219
